# xmcd
#
# Track frame offsets:
#	150
#	15097
#	31318
#	46529
#	65361
#	89764
#	106693
#	120769
#	138661
#	154546
#
# Disc length: 2273 seconds
#
# Revision: 0
# Processed by: cddbd v1.4PL0 Copyright (c) Steve Scherf et al.
# Submitted via: dBpowerAMP V4.0
#
DISCID=6808df0a
DTITLE=Minnie Riperton - Come To My Garden
DYEAR=1900
DGENRE=
TTITLE0=Les Fleur
TTITLE1=Completeness
TTITLE2=Come To My Garden
TTITLE3=Memory Band
TTITLE4=Rainy Day In Centerville
TTITLE5=Close Your Eyes And Remeber 
TTITLE6=Oh, By The Way
TTITLE7=Expecting
TTITLE8=Only When I´m Dreaming
TTITLE9=Whenever, Wherever
EXTD=
EXTT0=
EXTT1=
EXTT2=
EXTT3=
EXTT4=
EXTT5=
EXTT6=
EXTT7=
EXTT8=
EXTT9=
PLAYORDER=
